<svg xmlns="http://www.w3.org/2000/svg" width="20" height="20" viewBox="0 0 20 20">
    <g fill="none" fill-rule="evenodd">
        <g fill="#00B9F5" fill-rule="nonzero">
            <g>
                <g>
                    <path d="M18.173 4.816l-.954.954-1.514 1.513-.352.353h1.304l-1.459-1.459-2.304-2.304-.53-.53v1.304l.97-.97 1.525-1.525c.13-.129.256-.274.4-.39l-.188.146c.06-.046.123-.08.192-.113l-.222.092c.07-.028.139-.046.21-.058-.08.012-.163.024-.244.033.083-.01.166-.01.249 0-.08-.012-.164-.023-.244-.033.073.012.14.03.21.058L15 1.795c.07.03.131.067.191.113l-.186-.145c.129.106.244.237.364.355l.749.748 1.7 1.7c.143.144.302.282.429.439l-.146-.187c.046.062.083.124.113.196l-.092-.221c.028.069.044.14.055.214-.011-.08-.023-.164-.032-.244.007.073.007.145-.002.22.011-.08.023-.163.032-.243-.011.073-.03.145-.057.214l.092-.221c-.03.069-.07.133-.116.196l.146-.187c-.021.025-.044.05-.067.074-.166.172-.27.41-.27.652 0 .226.102.495.27.652.362.332.947.37 1.304 0 .435-.454.615-1.097.456-1.71-.078-.309-.253-.583-.477-.809l-.541-.541-1.906-1.906-.59-.59C16.274.42 16.113.287 15.926.2c-.279-.129-.58-.218-.894-.188-.302.027-.606.094-.86.27-.243.167-.437.375-.644.584l-.892.892c-.518.518-1.04 1.03-1.553 1.553l-.03.03c-.353.353-.353.952 0 1.304l1.459 1.459 2.304 2.304.53.53c.352.352.951.352 1.304 0l.954-.954 1.514-1.514.352-.352c.341-.342.366-.968 0-1.305-.362-.334-.933-.361-1.297.003z" transform="translate(-320 -304) translate(20 179) translate(300 125)"/>
                    <path d="M15.353 7.636L14.279 8.71 11.7 11.288l-3.117 3.118-2.687 2.686c-.435.436-.88.864-1.306 1.307l-.019.018.653-.27c-.482 0-.964 0-1.445-.002l-2.316-.002h-.53l.922.922c0-.482 0-.964-.002-1.445l-.003-2.316v-.53l-.27.652 1.074-1.073 2.579-2.579L8.35 8.657l2.687-2.687c.435-.435.88-.864 1.306-1.306l.019-.019h-1.304l1.458 1.459 2.304 2.304.53.53c.341.34.968.366 1.304 0 .34-.369.364-.94 0-1.304l-1.458-1.459-2.304-2.304-.53-.53c-.353-.353-.952-.353-1.304 0l-.466.465-1.228 1.229-1.742 1.741-1.986 1.987-1.984 1.984L1.93 12.47l-1.21 1.21-.332.332c-.21.21-.37.428-.38.76-.014.599 0 1.203.002 1.802 0 .783.003 1.564.003 2.348v.14c0 .498.421.922.921.922.597 0 1.194 0 1.79.002l2.355.002c.095 0 .173-.004.27-.016.214-.027.403-.129.555-.278l.228-.229 1.049-1.048 1.624-1.624 1.945-1.945 2.01-2.01 1.82-1.82 1.375-1.375c.226-.226.452-.45.675-.675l.03-.03c.341-.341.366-.968 0-1.304-.371-.334-.942-.362-1.306.002z" transform="translate(-320 -304) translate(20 179) translate(300 125)"/>
                </g>
            </g>
        </g>
    </g>
</svg>
