<svg xmlns="http://www.w3.org/2000/svg" width="20" height="18" viewBox="0 0 20 18">
    <g fill="none" fill-rule="evenodd">
        <g fill="#00B9F5" fill-rule="nonzero">
            <g>
                <path d="M18.312 72H3.23C2.011 72 1 73.003 1 74.222V84.49c0 1.22 1.011 2.21 2.23 2.21h7.27l5.135 3.224c.081.05.179.076.272.076.085 0 .17-.021.25-.064.162-.089.264-.259.264-.446V86.7h1.89c1.22 0 2.231-.99 2.231-2.21V74.222c0-1.22-1.011-2.222-2.23-2.222zm1.21 12.49c0 .654-.552 1.19-1.21 1.19h-2.405c-.28 0-.505.229-.505.51v2.378l-4.482-2.812c-.081-.051-.179-.077-.272-.077H3.23c-.658 0-1.21-.535-1.21-1.189V74.222c0-.659.552-1.202 1.21-1.202h15.082c.658 0 1.21.543 1.21 1.202V84.49z" transform="translate(-20 -628) translate(19 556) matrix(-1 0 0 1 21.542 0)"/>
            </g>
        </g>
    </g>
</svg>
