<svg xmlns="http://www.w3.org/2000/svg" width="21" height="20" viewBox="0 0 21 20">
    <g fill="none" fill-rule="evenodd">
        <g fill="#FC0">
            <g>
                <path d="M10.453 32c-.189.01-.352.134-.41.314L7.76 39.16H.453c-.196 0-.37.127-.43.313-.061.186.004.39.162.507l5.935 4.34-2.282 7.085c-.06.188.007.393.166.509.16.115.376.115.535-.002l5.936-4.34 5.935 4.34c.16.117.376.117.535.002.16-.116.227-.321.166-.509L14.83 44.32l5.935-4.34c.158-.116.223-.32.162-.507-.06-.186-.234-.313-.43-.313h-7.308l-2.282-6.846c-.063-.195-.25-.324-.454-.313z" transform="translate(-20 -211) translate(20 179)"/>
            </g>
        </g>
    </g>
</svg>
